<?xml version="1.0" encoding="UTF-8"?>
<svg version="1.1" xmlns="http://www.w3.org/2000/svg" width="512" height="512">
<path d="M0 0 C0.85435733 -0.00581376 1.70871466 -0.01162753 2.5889616 -0.01761746 C5.4714958 -0.03229516 8.35318882 -0.0182961 11.23571777 -0.00457001 C13.31522306 -0.00917585 15.3947251 -0.01552662 17.47422028 -0.02347898 C23.20394158 -0.04023891 28.93339777 -0.03189569 34.66312027 -0.01953411 C40.83634525 -0.01051315 47.00952346 -0.02443864 53.18273926 -0.0354538 C64.582214 -0.0522443 75.98158018 -0.05074445 87.38105226 -0.03980792 C97.91114844 -0.02975478 108.44121348 -0.02711464 118.97131348 -0.0318985 C119.6691768 -0.03220404 120.36704012 -0.03250958 121.08605081 -0.03282438 C123.91874205 -0.03406969 126.75143327 -0.03534328 129.58412448 -0.03666343 C156.16940655 -0.04890576 182.75463452 -0.03779558 209.33990824 -0.01627585 C232.9712227 0.00270729 256.60245094 0.00100881 280.23376465 -0.01811981 C306.76970493 -0.0395277 333.30559739 -0.04803762 359.8415451 -0.03567076 C362.66914367 -0.03438784 365.49674224 -0.03313649 368.32434082 -0.0318985 C369.02059297 -0.03158219 369.71684512 -0.03126588 370.43419582 -0.03093999 C380.95895126 -0.02638569 391.48367219 -0.03171938 402.00842285 -0.04181671 C413.97280025 -0.05323781 425.93707578 -0.05004233 437.9014492 -0.02869374 C444.01023517 -0.01815415 450.1188458 -0.01411096 456.22763062 -0.02729034 C461.81361349 -0.03915988 467.39925757 -0.03274183 472.98520947 -0.01138014 C475.01206214 -0.00689092 477.03894311 -0.00923186 479.06577778 -0.01888329 C481.80948366 -0.03095183 484.5520112 -0.01867005 487.2956543 0 C488.49106228 -0.014047 488.49106228 -0.014047 489.71061993 -0.02837777 C493.15222511 0.01880758 495.27033536 0.24380534 498.13837767 2.21583986 C499.9276724 4.92746151 500.14884835 6.37579362 500.15119171 9.60712433 C500.1616227 10.64370682 500.17205369 11.68028931 500.18280077 12.74828339 C500.17387788 13.88562424 500.164955 15.02296509 500.15576172 16.19477081 C500.16200168 17.40409775 500.16824164 18.61342468 500.1746707 19.85939789 C500.18788261 23.2178193 500.18310477 26.57534829 500.17072582 29.93371582 C500.16168984 33.55478261 500.1756378 37.17577041 500.18664551 40.79682159 C500.20445094 47.89104534 500.2005818 54.98510001 500.18899494 62.07933044 C500.17996882 67.84389893 500.17873305 73.60841995 500.18309021 79.37299347 C500.18370314 80.19280354 500.18431607 81.01261362 500.18494758 81.85726643 C500.18622646 83.52258938 500.18752331 85.18791232 500.18883795 86.85323524 C500.20024967 102.47642533 500.18712077 118.0995216 500.16563648 133.7226963 C500.14776495 147.13400772 500.15086889 160.54518065 500.16931152 173.95648956 C500.1907078 189.52299531 500.19915098 205.0894188 500.18686247 220.65593719 C500.18558824 222.31520334 500.18433076 223.97446949 500.18309021 225.63373566 C500.18247311 226.4501695 500.18185601 227.26660334 500.1812202 228.1077776 C500.17776357 233.86677586 500.18360238 239.62572202 500.19300842 245.38471222 C500.20421601 252.40109803 500.20121464 259.4173048 500.17988545 266.43367004 C500.16935814 270.01496487 500.16528141 273.59596097 500.17848206 277.17725372 C500.19256187 281.05565827 500.17577367 284.93357148 500.15576172 288.81195831 C500.16468461 289.94929916 500.17360749 291.08664001 500.18280077 292.25844574 C500.17236978 293.29502823 500.16193879 294.33161072 500.15119171 295.3996048 C500.1505423 296.29509537 500.14989289 297.19058594 500.1492238 298.11321259 C499.47513191 301.32660073 498.22243072 302.51981541 495.64782715 304.50336456 C493.68909049 305.00015855 493.68909049 305.00015855 491.59487534 304.99555588 C490.39160776 305.00750217 490.39160776 305.00750217 489.16403174 305.0196898 C488.2885469 305.00803843 487.41306205 304.99638707 486.51104736 304.98438263 C485.10934591 304.98950918 485.10934591 304.98950918 483.67932725 304.99473929 C480.54058783 305.00134047 477.40269904 304.9793048 474.26403809 304.95746613 C472.01717143 304.95633813 469.7703033 304.95697056 467.5234375 304.95923615 C461.41630256 304.9603861 455.30948043 304.93683101 449.20241833 304.90894032 C442.82292952 304.88397362 436.44343393 304.88158839 430.06390381 304.87683868 C419.35385688 304.86580973 408.643947 304.8408071 397.93395996 304.80512238 C386.90271581 304.76840547 375.87150288 304.74009216 364.84020996 304.72309113 C364.16022586 304.72204023 363.48024177 304.72098934 362.77965209 304.7199066 C359.36836658 304.71468644 355.95708084 304.70963161 352.54579496 304.70465899 C324.24639059 304.66319308 295.94712095 304.59164034 267.64782715 304.50336456 C267.64782715 312.42336456 267.64782715 320.34336456 267.64782715 328.50336456 C269.34084961 328.4824173 271.03387207 328.46147003 272.77819824 328.439888 C278.44977182 328.37469107 284.12129081 328.32911521 289.79314232 328.29611588 C293.22311205 328.27547441 296.6526666 328.24760308 300.08239746 328.20160675 C344.4253606 327.62337433 344.4253606 327.62337433 361.5032959 343.08930206 C363.64782715 345.50336456 363.64782715 345.50336456 364.14782715 348.19086456 C363.64782715 350.50336456 363.64782715 350.50336456 360.64782715 352.50336456 C358.77826881 352.75406289 358.77826881 352.75406289 356.63259888 352.75504684 C355.81336126 352.76026234 354.99412365 352.76547783 354.15006065 352.77085137 C352.80051513 352.76415921 352.80051513 352.76415921 351.42370605 352.75733185 C350.46770823 352.76045183 349.5117104 352.76357181 348.52674294 352.76678634 C345.30922993 352.77479171 342.0919042 352.76843278 338.87438965 352.76215363 C336.57342416 352.76486236 334.27245955 352.76842262 331.97149658 352.77277374 C325.71132035 352.781914 319.45120983 352.77834674 313.19103241 352.77201557 C306.65009886 352.76696404 300.10917107 352.77164466 293.5682373 352.7747879 C281.87802256 352.77906392 270.18783553 352.77243491 258.49762559 352.76226923 C247.89338104 352.75333345 237.28918028 352.75488542 226.68493652 352.76410675 C214.37721409 352.77480436 202.06951959 352.7787967 189.76179314 352.77288222 C183.24424055 352.76975867 176.72671815 352.76936374 170.20916748 352.7759552 C164.08281694 352.78171785 157.95654937 352.77775159 151.83020782 352.76616669 C149.57711169 352.76351431 147.32400862 352.76429498 145.07091522 352.76869202 C142.00449751 352.77412612 138.93834865 352.76733931 135.87194824 352.75733185 C134.97225122 352.76179329 134.07255421 352.76625473 133.14559364 352.77085137 C132.32635603 352.76563588 131.50711842 352.76042038 130.66305542 352.75504684 C129.95498434 352.75472214 129.24691326 352.75439744 128.51738548 352.75406289 C126.64782715 352.50336456 126.64782715 352.50336456 123.64782715 350.50336456 C123.52964946 347.60801125 123.5441393 346.12462319 124.64782715 343.50336456 C142.016575 326.66849215 166.75449072 328.07556878 189.0279541 328.29737091 C192.48777735 328.32847114 195.94766902 328.34184817 199.40759277 328.35688019 C206.15451927 328.38872292 212.90111118 328.44133384 219.64782715 328.50336456 C219.64782715 320.58336456 219.64782715 312.66336456 219.64782715 304.50336456 C216.80030823 304.51224701 213.95278931 304.52112946 211.01898193 304.53028107 C184.91752637 304.60984687 158.81608051 304.66957769 132.71453084 304.70762588 C129.2948351 304.71262882 125.87513965 304.71780609 122.45544434 304.72309113 C121.77463341 304.72414037 121.09382248 304.72518961 120.39238092 304.72627065 C109.36314483 304.74368446 98.33399199 304.77522748 87.30480531 304.81197575 C75.99110314 304.84935811 64.67746273 304.87129518 53.36369491 304.87971854 C47.00751942 304.88494241 40.65153285 304.89725668 34.29541779 304.92628479 C28.31680358 304.9533685 22.33845671 304.96182376 16.35978699 304.95579529 C14.16192422 304.95689868 11.96405282 304.96489419 9.76624298 304.98018646 C6.77203248 305.00000381 3.77883956 304.99533366 0.78460693 304.98438263 C-0.09087791 304.996034 -0.96636276 305.00768536 -1.86837745 305.0196898 C-2.67055583 305.0117256 -3.47273422 305.00376141 -4.29922104 304.99555588 C-4.99031204 304.99707476 -5.68140304 304.99859364 -6.39343619 305.00015855 C-9.31910172 304.25812259 -10.52169717 302.85892215 -12.35217285 300.50336456 C-12.85356951 298.11321259 -12.85356951 298.11321259 -12.85553741 295.3996048 C-12.8659684 294.36302231 -12.87639939 293.32643982 -12.88714647 292.25844574 C-12.87822359 291.12110489 -12.8693007 289.98376404 -12.86010742 288.81195831 C-12.86634738 287.60263138 -12.87258735 286.39330444 -12.8790164 285.14733124 C-12.89222831 281.78890983 -12.88745047 278.43138083 -12.87507153 275.07301331 C-12.86603554 271.45194651 -12.8799835 267.83095872 -12.89099121 264.20990753 C-12.90879664 257.11568378 -12.90492751 250.02162911 -12.89334065 242.92739868 C-12.88431453 237.1628302 -12.88307876 231.39830917 -12.88743591 225.63373566 C-12.88804885 224.81392558 -12.88866178 223.99411551 -12.88929328 223.1494627 C-12.89057216 221.48413975 -12.89186901 219.81881681 -12.89318365 218.15349388 C-12.90459537 202.53030379 -12.89146648 186.90720752 -12.86998218 171.28403282 C-12.85211065 157.87272141 -12.85521459 144.46154848 -12.87365723 131.05023956 C-12.89505351 115.48373381 -12.90349668 99.91731033 -12.89120817 84.35079193 C-12.88993395 82.69152579 -12.88867647 81.03225964 -12.88743591 79.37299347 C-12.88681881 78.55655963 -12.88620171 77.74012579 -12.88556591 76.89895153 C-12.88210927 71.13995327 -12.88794809 65.3810071 -12.89735413 59.62201691 C-12.90856171 52.6056311 -12.90556034 45.58942433 -12.88423115 38.57305908 C-12.87370384 34.99176426 -12.86962711 31.41076816 -12.88282776 27.8294754 C-12.89690757 23.95107085 -12.88011937 20.07315765 -12.86010742 16.19477081 C-12.86903031 15.05742996 -12.8779532 13.92008911 -12.88714647 12.74828339 C-12.87671548 11.7117009 -12.86628449 10.67511841 -12.85553741 9.60712433 C-12.85488801 8.71163376 -12.8542386 7.81614319 -12.85356951 6.89351654 C-11.39621936 -0.05365452 -6.06717176 -0.07129411 0 0 Z M13.20412874 26.26269197 C11.48108829 28.74342548 11.14704633 29.8748183 11.14446259 32.85749054 C11.1340316 33.72687004 11.12360061 34.59624954 11.11285353 35.49197388 C11.12177641 36.44254921 11.1306993 37.39312454 11.13989258 38.37250519 C11.13365262 39.38582161 11.12741265 40.39913803 11.1209836 41.44316101 C11.10499034 44.84888011 11.11768302 48.25388977 11.13024902 51.65961456 C11.12483074 54.09703744 11.11770975 56.53445705 11.10900879 58.97187042 C11.09263656 64.91105701 11.09506912 70.8500584 11.10665935 76.78923988 C11.11568845 81.61559585 11.11691996 86.44189515 11.11256409 91.26825714 C11.11195115 91.95484988 11.11133822 92.64144261 11.11070672 93.34884119 C11.10942783 94.74358815 11.10813098 96.13833509 11.10681635 97.53308201 C11.09540683 110.61539325 11.10853004 123.69759243 11.13001782 136.77988529 C11.14788918 148.00808035 11.14478517 159.23610999 11.12634277 170.46430206 C11.10494258 183.4994021 11.0965055 196.53440389 11.10879183 209.56951904 C11.11006604 210.95917001 11.11132352 212.34882099 11.11256409 213.73847198 C11.11318119 214.42222853 11.11379829 215.10598508 11.11443409 215.81046152 C11.11788956 220.63170382 11.11205444 225.45288386 11.10264587 230.27411652 C11.09026393 236.76168317 11.09906401 243.24901058 11.1222229 249.73654938 C11.12752443 252.12145212 11.12597171 254.5063811 11.11717224 256.8912735 C11.10629058 260.13928284 11.11989187 263.38627965 11.13989258 266.63422394 C11.13096969 267.58479927 11.1220468 268.5353746 11.11285353 269.51475525 C11.12328452 270.38413475 11.13371551 271.25351425 11.14446259 272.14923859 C11.14511199 272.89891655 11.1457614 273.64859451 11.14643049 274.42098999 C11.89499969 277.52990873 13.06085786 278.64089006 15.64782715 280.50336456 C18.31996325 280.89556891 20.5800643 281.04146372 23.25036621 281.00672913 C24.0236816 281.01254289 24.79699699 281.01835665 25.59374619 281.02434659 C28.20062734 281.0390144 30.80657692 281.02503021 33.41345215 281.01129913 C35.29496748 281.01590538 37.17647923 281.02225642 39.0579834 281.03020811 C44.24043851 281.04696257 49.42260036 281.03862734 54.60505676 281.02626324 C60.18932113 281.01724003 65.77353387 281.03116888 71.35778809 281.04218292 C82.30214763 281.06000196 93.24639767 281.05611309 104.19076157 281.04453236 C113.08270926 281.03551161 121.97462619 281.03426814 130.86657715 281.03862762 C132.13044502 281.03924056 133.3943129 281.03985349 134.6964798 281.04048499 C137.26372275 281.04176385 139.83096569 281.0430607 142.39820862 281.04437536 C165.80372177 281.05546543 189.20916456 281.04394995 212.61466408 281.02300497 C233.99033382 281.00402191 255.36590824 281.0057204 276.74157715 281.02484894 C300.74610924 281.04625807 324.75058175 281.05469235 348.75512695 281.04239988 C351.31311034 281.04112564 353.87109374 281.03986816 356.42907715 281.03862762 C357.68776863 281.03801052 358.94646011 281.03739342 360.24329376 281.03675762 C369.12815121 281.03329886 378.01297492 281.03914437 386.89782715 281.04854584 C397.72036099 281.05974554 408.54277874 281.05676854 419.36529922 281.03542286 C424.89081464 281.02488512 430.41613625 281.02083692 435.94165039 281.03401947 C440.99472443 281.04589288 446.04742405 281.03946462 451.10046387 281.01810926 C452.93350858 281.01362168 454.76658459 281.0159574 456.59960938 281.02561241 C459.08195878 281.03768987 461.56300783 281.02539084 464.04528809 281.00672913 C464.76521816 281.01609379 465.48514824 281.02545846 466.22689438 281.0351069 C469.53743515 280.98499826 471.37618113 280.69893464 474.09152555 278.74403715 C475.814566 276.26330365 476.14860797 275.13191083 476.15119171 272.14923859 C476.1668382 270.84516933 476.1668382 270.84516933 476.18280077 269.51475525 C476.16941644 268.08889225 476.16941644 268.08889225 476.15576172 266.63422394 C476.16200168 265.62090752 476.16824164 264.60759109 476.1746707 263.56356812 C476.19066396 260.15784902 476.17797128 256.75283935 476.16540527 253.34711456 C476.17082355 250.90969168 476.17794455 248.47227208 476.18664551 246.0348587 C476.20301773 240.09567212 476.20058517 234.15667073 476.18899494 228.21748924 C476.17996585 223.39113327 476.17873433 218.56483398 476.18309021 213.73847198 C476.18400961 212.70858288 476.18400961 212.70858288 476.18494758 211.65788794 C476.18622647 210.26314098 476.18752332 208.86839404 476.18883795 207.47364712 C476.20024747 194.39133587 476.18712425 181.3091367 476.16563648 168.22684383 C476.14776512 156.99864878 476.15086913 145.77061913 476.16931152 134.54242706 C476.19071172 121.50732702 476.1991488 108.47232524 476.18686247 95.43721008 C476.18558826 94.04755912 476.18433077 92.65790814 476.18309021 91.26825714 C476.18247311 90.58450059 476.18185601 89.90074405 476.1812202 89.1962676 C476.17776474 84.37502531 476.18359986 79.55384527 476.19300842 74.73261261 C476.20539037 68.24504596 476.19659029 61.75771855 476.1734314 55.27017975 C476.16812987 52.88527701 476.16968259 50.50034803 476.17848206 48.11545563 C476.18936372 44.86744629 476.17576243 41.62044948 476.15576172 38.37250519 C476.16468461 37.42192986 476.17360749 36.47135452 476.18280077 35.49197388 C476.17236978 34.62259438 476.16193879 33.75321487 476.15119171 32.85749054 C476.1505423 32.10781258 476.14989289 31.35813461 476.1492238 30.58573914 C475.40065461 27.47682039 474.23479644 26.36583907 471.64782715 24.50336456 C468.97569105 24.11116022 466.71558999 23.9652654 464.04528809 24 C463.27197269 23.99418624 462.4986573 23.98837247 461.70190811 23.98238254 C459.09502695 23.96771472 456.48907738 23.98169891 453.88220215 23.99542999 C452.00068681 23.99082375 450.11917507 23.9844727 448.2376709 23.97652102 C443.05521579 23.95976656 437.87305393 23.96810179 432.69059753 23.98046589 C427.10633317 23.9894891 421.52212043 23.97556025 415.93786621 23.9645462 C404.99350667 23.94672716 394.04925663 23.95061603 383.10489273 23.96219677 C374.21294503 23.97121752 365.3210281 23.97246098 356.42907715 23.9681015 C354.53327534 23.9671821 354.53327534 23.9671821 352.5991745 23.96624413 C350.03193155 23.96496528 347.46468861 23.96366842 344.89744568 23.96235377 C321.49193253 23.9512637 298.08648974 23.96277917 274.68099022 23.98372415 C253.30532048 24.00270721 231.92974605 24.00100873 210.55407715 23.98188019 C186.54954505 23.96047105 162.54507254 23.95203678 138.54052734 23.96432924 C135.98254395 23.96560349 133.42456056 23.96686097 130.86657715 23.9681015 C129.60788567 23.9687186 128.34919418 23.96933571 127.05236053 23.96997151 C118.16750309 23.97343026 109.28267937 23.96758476 100.39782715 23.95818329 C89.5752933 23.94698358 78.75287556 23.94996058 67.93035507 23.97130626 C62.40483965 23.98184401 56.87951804 23.98589221 51.35400391 23.97270966 C46.30092987 23.96083625 41.24823024 23.96726451 36.19519043 23.98861986 C34.36214571 23.99310744 32.5290697 23.99077172 30.69604492 23.98111671 C28.21369552 23.96903925 25.73264647 23.98133829 23.25036621 24 C22.53043613 23.99063534 21.81050606 23.98127067 21.06875992 23.97162223 C17.75821915 24.02173086 15.91947317 24.30779448 13.20412874 26.26269197 Z " fill="#00618E" transform="translate(12.3521728515625,79.49663543701172)"/>
<path d="M0 0 C9.24 0 18.48 0 28 0 C28.33 14.52 28.66 29.04 29 44 C32.81504541 39.63994811 36.6211434 35.28808966 40.37426758 30.87744141 C45.39445886 24.97865274 50.5062833 19.18879215 55.73828125 13.4765625 C61.71876861 7.0163992 61.71876861 7.0163992 67 0 C69.83727325 -0.26667539 72.45383045 -0.34791234 75.2890625 -0.29296875 C76.10748627 -0.28872391 76.92591003 -0.28447906 77.76913452 -0.28010559 C80.38808836 -0.26328679 83.00627802 -0.22562974 85.625 -0.1875 C87.3984264 -0.17245726 89.17186484 -0.15876814 90.9453125 -0.14648438 C95.2971703 -0.11337292 99.64845551 -0.06156952 104 0 C100.2923591 4.37150359 96.52568214 8.67395032 92.625 12.875 C92.11952637 13.4210791 91.61405273 13.9671582 91.09326172 14.52978516 C86.1239601 19.88743016 81.11295023 25.20584179 76.10009766 30.52270508 C69.37390767 37.65745003 62.68369945 44.82546637 56 52 C57.28923981 54.78823237 58.68619531 56.98996602 60.72265625 59.28515625 C61.25632812 59.89230469 61.79 60.49945313 62.33984375 61.125 C62.90832031 61.764375 63.47679687 62.40375 64.0625 63.0625 C65.25250461 64.41691314 66.44130257 65.77238739 67.62890625 67.12890625 C68.20914551 67.79164551 68.78938477 68.45438477 69.38720703 69.13720703 C71.47662472 71.5505066 73.49461325 74.01660672 75.5 76.5 C79.07542725 80.91670425 82.7662592 85.21755791 86.5 89.5 C99.4032009 104.31700126 99.4032009 104.31700126 104.625 111.66015625 C105.07101562 112.28672119 105.51703125 112.91328613 105.9765625 113.55883789 C106.48316406 114.27221313 106.48316406 114.27221313 107 115 C71.35604546 117.9441299 71.35604546 117.9441299 63.74609375 111.70703125 C60.63634048 108.24790863 58.35090808 104.37827105 56.22119141 100.25683594 C54.37249998 96.84034183 51.96953629 93.98100469 49.5 91 C48.6248832 89.88233348 47.75253023 88.76249796 46.8828125 87.640625 C42.85685422 82.51563463 38.67865377 77.51342167 34.50585938 72.5078125 C33.93416016 71.81945312 33.36246094 71.13109375 32.7734375 70.421875 C32.26216309 69.80924805 31.75088867 69.19662109 31.22412109 68.56542969 C30 67 30 67 29 65 C28.67 81.5 28.34 98 28 115 C18.76 115 9.52 115 0 115 C0 77.05 0 39.1 0 0 Z " fill="#00618E" transform="translate(259,144)"/>
<path d="M0 0 C11.22 0 22.44 0 34 0 C34 23.1 34 46.2 34 70 C39.28 70 44.56 70 50 70 C50 77.59 50 85.18 50 93 C45.05 93 40.1 93 35 93 C35 100.26 35 107.52 35 115 C26.09 115 17.18 115 8 115 C8 107.74 8 100.48 8 93 C-9.82 93 -27.64 93 -46 93 C-46 65.42204378 -46 65.42204378 -40.078125 57.62890625 C-39.15528717 56.27538307 -39.15528717 56.27538307 -38.21380615 54.89451599 C-36.27584418 52.07789867 -34.26757239 49.3224512 -32.25 46.5625 C-30.94931237 44.6995241 -29.653711 42.8329865 -28.36328125 40.96289062 C-25.23014206 36.44835074 -22.03987356 31.97880386 -18.8215332 27.52471924 C-15.97795515 23.58340419 -13.16691957 19.61936654 -10.359375 15.65234375 C-9.8877594 14.99150284 -9.4161438 14.33066193 -8.93023682 13.64979553 C-5.76328371 9.18439736 -2.91322015 4.66115224 0 0 Z M7 30 C6.24260469 31.1105014 5.53507867 32.25503225 4.84765625 33.41015625 C4.40558838 34.14580811 3.96352051 34.88145996 3.50805664 35.6394043 C3.03102295 36.43902588 2.55398926 37.23864746 2.0625 38.0625 C-2.00794822 44.81664238 -6.20268891 51.45088212 -10.65014648 57.96313477 C-13.32623642 61.90141423 -15.62036302 65.83563529 -18 70 C-9.42 70 -0.84 70 8 70 C8 56.8 8 43.6 8 30 C7.67 30 7.34 30 7 30 Z " fill="#00618E" transform="translate(192,144)"/>
<path d="M0 0 C17.86046512 0 17.86046512 0 23.8125 5.6875 C28.60852712 12.95005536 28.99263486 21.26941051 27.53515625 29.68359375 C26.02549909 35.69542375 24.17596634 38.58606475 19 42 C13.32745403 44.83627298 6.3420992 43 0 43 C0 28.81 0 14.62 0 0 Z M8 8 C8 17.24 8 26.48 8 36 C13.83442917 36.6351054 13.83442917 36.6351054 16.8125 33.6875 C20.03313877 29.30327561 20.13820137 24.28236353 20 19 C19.31665485 15.08629595 18.55195926 12.76880039 16.25 9.5625 C13.63518435 7.42960419 13.63518435 7.42960419 8 8 Z " fill="#00618E" transform="translate(338,276)"/>
<path d="M0 0 C2.64 0 5.28 0 8 0 C8 5.61 8 11.22 8 17 C11.63 17 15.26 17 19 17 C19 11.39 19 5.78 19 0 C21.64 0 24.28 0 27 0 C27 14.19 27 28.38 27 43 C24.36 43 21.72 43 19 43 C19 37.06 19 31.12 19 25 C15.37 25 11.74 25 8 25 C8 30.94 8 36.88 8 43 C5.36 43 2.72 43 0 43 C0 28.81 0 14.62 0 0 Z " fill="#00618E" transform="translate(302,276)"/>
<path d="M0 0 C17.6 0 17.6 0 22 3 C25.02571989 7.29457017 25.55531409 10.81706852 25 16 C23.6875 19.375 23.6875 19.375 22 22 C21.01 22.33 20.02 22.66 19 23 C19.63228516 24.66289062 19.63228516 24.66289062 20.27734375 26.359375 C20.830846 27.82287248 21.38422496 29.2864166 21.9375 30.75 C22.35418945 31.84441406 22.35418945 31.84441406 22.77929688 32.9609375 C23.04677734 33.66992188 23.31425781 34.37890625 23.58984375 35.109375 C23.83597412 35.75874023 24.08210449 36.40810547 24.33569336 37.07714844 C25.00534792 39.01547968 25.50262068 41.01048271 26 43 C23.03 43 20.06 43 17 43 C15.9936345 40.56495491 14.99473587 38.12729136 14 35.6875 C13.71382812 34.99720703 13.42765625 34.30691406 13.1328125 33.59570312 C11.91089256 30.58454326 11 28.28113016 11 25 C10.01 25 9.02 25 8 25 C8 30.94 8 36.88 8 43 C5.36 43 2.72 43 0 43 C0 28.81 0 14.62 0 0 Z M8 7 C8 10.96 8 14.92 8 19 C13.6552653 19.64261226 13.6552653 19.64261226 15.9375 17.375 C17.37504343 14.16166762 17.01373739 12.33085144 16 9 C12.90754997 6.53774984 12.90754997 6.53774984 8 7 Z " fill="#00618E" transform="translate(228,276)"/>
<path d="M0 0 C2.64 0 5.28 0 8 0 C8.01981934 0.88260498 8.03963867 1.76520996 8.06005859 2.67456055 C8.13837866 5.96421957 8.22507855 9.25343964 8.31738281 12.54272461 C8.35555149 13.9635373 8.39042513 15.38444263 8.421875 16.80541992 C8.46779065 18.85368855 8.52573805 20.90132608 8.5859375 22.94921875 C8.6173584 24.17987061 8.6487793 25.41052246 8.68115234 26.6784668 C8.98853222 29.88053663 9.52784753 32.15316035 11 35 C12.88850355 36.07642709 12.88850355 36.07642709 15 36 C18.24246583 34.32578555 18.24246583 34.32578555 18.66772461 31.29443359 C19.00488048 27.95161112 19.20857698 24.64717405 19.31640625 21.2890625 C19.35830078 20.04511719 19.40019531 18.80117188 19.44335938 17.51953125 C19.48267578 16.23433594 19.52199219 14.94914062 19.5625 13.625 C19.60568359 12.31660156 19.64886719 11.00820313 19.69335938 9.66015625 C19.79912429 6.44020203 19.90121579 3.22017469 20 0 C22.64 0 25.28 0 28 0 C28.07485856 4.25004671 28.12893167 8.49973134 28.16479492 12.75024414 C28.17976508 14.19236955 28.20014868 15.63445036 28.22631836 17.07641602 C28.54858695 35.30670759 28.54858695 35.30670759 23.0625 42.5625 C18.12461425 44.88028311 13.3439596 44.82437266 8 44 C4.98849958 42.6986633 4.1601936 41.6718184 2 39 C0.22177019 33.98664519 -0.23787768 29.61577088 -0.1953125 24.31640625 C-0.1924826 23.61603745 -0.18965271 22.91566864 -0.18673706 22.19407654 C-0.17564885 19.9833683 -0.15056703 17.77308329 -0.125 15.5625 C-0.11495546 14.05274028 -0.1058322 12.54297412 -0.09765625 11.03320312 C-0.07574714 7.35533403 -0.04129758 3.6777084 0 0 Z " fill="#00618E" transform="translate(146,276)"/>
<path d="M0 0 C3.63 0 7.26 0 11 0 C12.42708161 5.801694 13.85117137 11.60411091 15.27246094 17.40722656 C15.75665898 19.38236462 16.24168227 21.35730056 16.72753906 23.33203125 C17.42468484 26.16614224 18.11888531 29.00096055 18.8125 31.8359375 C19.03123779 32.72243988 19.24997559 33.60894226 19.4753418 34.52230835 C19.67554932 35.34300812 19.87575684 36.16370789 20.08203125 37.00927734 C20.25968018 37.73319672 20.4373291 38.45711609 20.62036133 39.20297241 C21 41 21 41 21 43 C18.03 43 15.06 43 12 43 C11.34 40.36 10.68 37.72 10 35 C6.7 34.67 3.4 34.34 0 34 C-0.144375 35.299375 -0.28875 36.59875 -0.4375 37.9375 C-0.875 41.875 -0.875 41.875 -2 43 C-4.67058851 43.14115161 -7.32432238 43.04247107 -10 43 C-6.8768951 28.61534627 -3.46657658 14.30540602 0 0 Z M5 10 C3.68 15.94 2.36 21.88 1 28 C3.64 28 6.28 28 9 28 C8.32418477 21.91766294 7.26361972 15.98685848 6 10 C5.67 10 5.34 10 5 10 Z " fill="#00618E" transform="translate(265,276)"/>
<path d="M0 0 C2.97 0 5.94 0 9 0 C9 11.88 9 23.76 9 36 C12.63 36 16.26 36 20 36 C20 38.31 20 40.62 20 43 C13.4 43 6.8 43 0 43 C0 28.81 0 14.62 0 0 Z " fill="#00618E" transform="translate(181,276)"/>
<path d="M0 0 C7.92 0 15.84 0 24 0 C24 2.31 24 4.62 24 7 C21.36 7 18.72 7 16 7 C16 18.88 16 30.76 16 43 C13.36 43 10.72 43 8 43 C8 31.12 8 19.24 8 7 C5.36 7 2.72 7 0 7 C0 4.69 0 2.38 0 0 Z " fill="#00618E" transform="translate(200,276)"/>
</svg>
