<?xml version="1.0" encoding="UTF-8"?>
<svg version="1.1" xmlns="http://www.w3.org/2000/svg" width="512" height="512">
<path d="M0 0 C1.15894775 0.35288086 1.15894775 0.35288086 2.34130859 0.71289062 C44.51928893 13.78090987 83.72829754 40.17394094 111 75 C111.80179687 75.99644531 112.60359375 76.99289063 113.4296875 78.01953125 C130.97237134 100.02256865 143.50883268 125.24963077 152 152 C152.26393555 152.82918945 152.52787109 153.65837891 152.79980469 154.51269531 C154.4832525 159.95379856 155.83310846 165.42638942 157 171 C157.19464844 171.91185059 157.38929688 172.82370117 157.58984375 173.76318359 C165.03919541 210.35873221 163.07678922 250.38398038 152 286 C151.76474609 286.77263184 151.52949219 287.54526367 151.28710938 288.34130859 C138.21909013 330.51928893 111.82605906 369.72829754 77 397 C76.00355469 397.80179687 75.00710938 398.60359375 73.98046875 399.4296875 C51.97743135 416.97237134 26.75036923 429.50883268 0 438 C-0.82918945 438.26393555 -1.65837891 438.52787109 -2.51269531 438.79980469 C-7.95379856 440.4832525 -13.42638942 441.83310846 -19 443 C-19.91185059 443.19464844 -20.82370117 443.38929688 -21.76318359 443.58984375 C-78.9994678 455.24080199 -142.38505923 443.86572034 -191.23828125 411.58984375 C-211.37950958 397.87947084 -229.9359926 382.23678993 -245 363 C-245.80179688 362.00355469 -246.60359375 361.00710938 -247.4296875 359.98046875 C-275.92926139 324.23051403 -294.79533857 276.88788807 -295.23828125 230.8828125 C-295.24802979 230.03609482 -295.25777832 229.18937714 -295.26782227 228.31700134 C-295.50747029 202.08647674 -293.84155262 177.2135241 -286 152 C-285.76474609 151.22736816 -285.52949219 150.45473633 -285.28710938 149.65869141 C-272.21909013 107.48071107 -245.82605906 68.27170246 -211 41 C-210.00355469 40.19820312 -209.00710937 39.39640625 -207.98046875 38.5703125 C-179.38866329 15.77450506 -145.65334272 1.43423306 -110 -6 C-109.17193848 -6.17789062 -108.34387695 -6.35578125 -107.49072266 -6.5390625 C-72.89833022 -13.60760732 -33.50677759 -10.42080268 0 0 Z M-211.85229492 75.61987305 C-238.79476958 102.25132346 -257.52624424 137.16865968 -266 174 C-266.20882812 174.89041992 -266.41765625 175.78083984 -266.6328125 176.69824219 C-272.8019054 204.31274191 -272.43918868 235.49247337 -266 263 C-265.82871582 263.79954102 -265.65743164 264.59908203 -265.48095703 265.42285156 C-259.5951253 292.82221809 -247.01452428 318.82186387 -230 341 C-229.25363281 341.99257813 -228.50726563 342.98515625 -227.73828125 344.0078125 C-223.64547732 349.37923722 -223.64547732 349.37923722 -218 353 C-195.23 330.23 -195.23 330.23 -172 307 C-168.7082525 308.64587375 -167.20294843 309.5529926 -164.765625 312.0390625 C-164.19199219 312.61914062 -163.61835938 313.19921875 -163.02734375 313.796875 C-162.14755859 314.70179688 -162.14755859 314.70179688 -161.25 315.625 C-160.64800781 316.23601562 -160.04601562 316.84703125 -159.42578125 317.4765625 C-157.94594695 318.97988624 -156.47235324 320.48934856 -155 322 C-156.50684968 325.53239023 -158.55366612 327.7962166 -161.26611328 330.49316406 C-162.14687531 331.37377502 -163.02763733 332.25438599 -163.93508911 333.16168213 C-164.89672351 334.11310431 -165.8584672 335.06441603 -166.8203125 336.015625 C-167.80438107 336.99596129 -168.78800742 337.97674168 -169.77120972 338.95794678 C-172.35442714 341.53354467 -174.94359512 344.10307857 -177.53405762 346.67138672 C-180.1786762 349.29551067 -182.8176101 351.92533771 -185.45703125 354.5546875 C-190.63248072 359.7087167 -195.81423122 364.85635157 -201 370 C-191.88610664 389.62874425 -155.04431309 403.65480513 -136.3828125 410.73828125 C-85.57909717 429.21726541 -29.44986918 426.26407461 19.53515625 403.65625 C41.50692766 393.15120197 60.71405939 379.09746859 78 362 C78.58998779 361.42757568 79.17997559 360.85515137 79.7878418 360.26538086 C83.60285424 356.52789881 87.05716161 352.66913309 90.3125 348.4375 C90.78051025 347.83164062 91.24852051 347.22578125 91.73071289 346.6015625 C92.69475553 345.34627665 93.65530782 344.08830233 94.61230469 342.82763672 C95.4958909 341.66392695 96.3840807 340.50368793 97.27832031 339.34814453 C115.50383043 315.71578133 126.61415177 287.97046481 133 259 C133.17789062 258.23880859 133.35578125 257.47761719 133.5390625 256.69335938 C139.35794435 230.94711628 137.97349961 200.51815262 132 175 C131.82871582 174.20045898 131.65743164 173.40091797 131.48095703 172.57714844 C124.64784801 140.76807415 108.74829546 108.48426972 86 85 C82.46760977 86.50684968 80.2037834 88.55366612 77.50683594 91.26611328 C76.62622498 92.14687531 75.74561401 93.02763733 74.83831787 93.93508911 C73.88689569 94.89672351 72.93558397 95.8584672 71.984375 96.8203125 C71.00403871 97.80438107 70.02325832 98.78800742 69.04205322 99.77120972 C66.46645533 102.35442714 63.89692143 104.94359512 61.32861328 107.53405762 C58.70448933 110.1786762 56.07466229 112.8176101 53.4453125 115.45703125 C48.2912833 120.63248072 43.14364843 125.81423122 38 131 C35.09380865 129.60403514 33.02878234 128.26935799 30.765625 125.9609375 C30.19199219 125.38085938 29.61835938 124.80078125 29.02734375 124.203125 C28.44082031 123.59984375 27.85429687 122.9965625 27.25 122.375 C26.64800781 121.76398438 26.04601562 121.15296875 25.42578125 120.5234375 C23.94594695 119.02011376 22.47235324 117.51065144 21 116 C22.50684968 112.46760977 24.55366612 110.2037834 27.26611328 107.50683594 C28.14687531 106.62622498 29.02763733 105.74561401 29.93508911 104.83831787 C30.89672351 103.88689569 31.8584672 102.93558397 32.8203125 101.984375 C33.80438107 101.00403871 34.78800742 100.02325832 35.77120972 99.04205322 C38.35442714 96.46645533 40.94359512 93.89692143 43.53405762 91.32861328 C46.1786762 88.70448933 48.8176101 86.07466229 51.45703125 83.4453125 C56.63248072 78.2912833 61.81423122 73.14364843 67 68 C61.48496775 56.11428875 44.7919343 48.41601403 34 42 C33.03537842 41.42354736 33.03537842 41.42354736 32.05126953 40.83544922 C-46.89055256 -5.63750065 -147.816264 13.57904484 -211.85229492 75.61987305 Z " fill="#00618E" transform="translate(323,37)"/>
<path d="M0 0 C0.82678253 -0.0033284 1.65356506 -0.0066568 2.50540161 -0.01008606 C4.25880377 -0.01514607 6.01221555 -0.01749467 7.765625 -0.01733398 C10.40121232 -0.01949509 13.03636312 -0.03758933 15.671875 -0.05664062 C34.86863611 -0.12255235 53.1911071 1.42366218 68.5703125 14.16796875 C69.26640625 14.71710938 69.9625 15.26625 70.6796875 15.83203125 C75.20614452 19.81461165 78.10739441 24.38698269 80.8828125 29.66796875 C81.37128662 30.5640686 81.37128662 30.5640686 81.86962891 31.47827148 C87.89043555 43.71556881 88.06273223 57.86844651 87.96142578 71.21362305 C87.94530169 73.73215668 87.96139857 76.24909172 87.98046875 78.76757812 C87.99868918 91.50731876 87.29836218 104.25618304 81.1953125 115.73046875 C80.63070312 116.82488281 80.06609375 117.91929687 79.484375 119.046875 C72.317214 130.73373549 60.48029212 138.55945337 47.31567383 142.0246582 C36.343305 144.29079422 25.65128932 144.63021628 14.46679688 144.55908203 C11.41492294 144.54280669 8.36433728 144.55911803 5.3125 144.578125 C3.35416377 144.57614553 1.39582834 144.57230801 -0.5625 144.56640625 C-1.46565948 144.57247894 -2.36881897 144.57855164 -3.29934692 144.58480835 C-9.2677969 144.51831678 -13.44198092 143.53752914 -18.2421875 139.73046875 C-20.66617611 136.54101005 -20.55735365 132.8977965 -20.57012939 129.01980591 C-20.57583954 127.97962311 -20.58154968 126.93944031 -20.58743286 125.86773682 C-20.58855072 124.73205261 -20.58966858 123.59636841 -20.59082031 122.42626953 C-20.59578522 121.22588043 -20.60075012 120.02549133 -20.60586548 118.78872681 C-20.61796128 115.49940375 -20.62542869 112.2101162 -20.62987614 108.92077494 C-20.63281097 106.86435454 -20.63691651 104.80793967 -20.64138031 102.75152206 C-20.65504675 96.31332365 -20.66471802 89.87513792 -20.6685822 83.43692601 C-20.67306334 76.01233949 -20.69061727 68.58793704 -20.7195828 61.16340649 C-20.74121404 55.41890212 -20.75128722 49.67444948 -20.75262332 43.92990482 C-20.75367017 40.5013253 -20.75955232 37.07291901 -20.77744293 33.64438248 C-20.7944788 29.81893166 -20.79262898 25.99393029 -20.78613281 22.16845703 C-20.7953476 21.03682129 -20.80456238 19.90518555 -20.8140564 18.73925781 C-20.78437886 13.16615976 -20.70673445 8.91899356 -17.4296875 4.16796875 C-11.91715242 0.0689042 -6.67111871 0.0094149 0 0 Z M8.5703125 25.16796875 C8.5703125 56.18796875 8.5703125 87.20796875 8.5703125 119.16796875 C32.14118351 120.48811791 32.14118351 120.48811791 51.5703125 110.16796875 C58.07587568 102.96715455 58.8834135 95.4022938 58.90625 86.02734375 C58.9129068 85.06451477 58.9195636 84.10168579 58.92642212 83.10968018 C58.9365104 81.07916156 58.94124033 79.04861005 58.94091797 77.01806641 C58.94527962 73.94116388 58.98160874 70.8657107 59.01953125 67.7890625 C59.18116888 53.52206824 59.18116888 53.52206824 54.5703125 40.16796875 C54.0134375 39.07484375 53.4565625 37.98171875 52.8828125 36.85546875 C46.80202538 29.78860804 40.59539467 27.8754934 31.5703125 25.16796875 C23.9803125 25.16796875 16.3903125 25.16796875 8.5703125 25.16796875 Z " fill="#00618E" transform="translate(296.4296875,183.83203125)"/>
<path d="M0 0 C6.87984852 4.91417751 9.10788418 10.94915146 11.75 18.70703125 C12.13015259 19.78766342 12.51030518 20.86829559 12.90197754 21.98167419 C13.72407112 24.32224896 14.54047743 26.66482743 15.35180664 29.00915527 C17.30625434 34.65569147 19.29402542 40.29047126 21.28062439 45.92575455 C21.97428958 47.8946296 22.66644064 49.86403278 23.35852051 51.83346558 C28.89090319 67.55486211 34.69180631 83.17677744 40.48925781 98.8019104 C41.36414887 101.16026092 42.23839505 103.51885079 43.11193848 105.87770081 C43.89966114 108.00425342 44.68912448 110.13016258 45.48083496 112.25523376 C46.54366802 115.12339602 47.5896804 117.9967969 48.625 120.875 C49.20411133 122.4757135 49.20411133 122.4757135 49.79492188 124.10876465 C50.16617188 125.16954224 50.53742188 126.23031982 50.91992188 127.32324219 C51.25761597 128.27946472 51.59531006 129.23568726 51.9432373 130.22088623 C53.05178335 134.53647484 52.43725847 136.81554103 50.625 140.875 C46.94316675 144.76137954 42.8468977 146.77069396 37.453125 146.9453125 C32.88773364 146.68487071 29.67210533 145.96726075 26.11035156 142.82104492 C22.65518086 138.29422611 21.38652447 132.4385178 19.75 127.0625 C18.38875 122.710625 17.0275 118.35875 15.625 113.875 C-9.125 113.38 -9.125 113.38 -34.375 112.875 C-35.035 115.845 -35.695 118.815 -36.375 121.875 C-37.21420565 124.99246861 -38.19091653 128.05458619 -39.1875 131.125 C-39.42275391 131.90101563 -39.65800781 132.67703125 -39.90039062 133.4765625 C-41.78464532 139.27274754 -44.24064531 143.14285662 -49.75 146.1875 C-55.83773749 147.78190744 -60.25637748 147.01168974 -65.640625 143.99609375 C-68.02858093 142.45252764 -69.22972963 141.52343774 -70.375 138.875 C-71.08895502 132.29006562 -69.76976826 127.02825377 -67.3515625 120.95703125 C-67.02248901 120.09393845 -66.69341553 119.23084564 -66.35437012 118.34159851 C-65.24956514 115.45159153 -64.12456431 112.56986929 -63 109.6875 C-61.79159717 106.54167617 -60.5887563 103.39376 -59.38619995 100.24569702 C-58.50986497 97.95227802 -57.63181917 95.65951214 -56.75222778 93.36734009 C-52.93824837 83.4111947 -49.22364046 73.41976578 -45.53125 63.41796875 C-44.94365978 61.82761195 -44.35604382 60.23726466 -43.7684021 58.64692688 C-41.43086083 52.3190604 -39.09457376 45.99073675 -36.76397705 39.66030884 C-35.38096964 35.90450792 -33.99345714 32.15039841 -32.60292053 28.39737892 C-32.08854384 27.00653275 -31.57580879 25.61507814 -31.06486511 24.22296715 C-23.58890884 3.85827489 -23.58890884 3.85827489 -17.375 -0.125 C-11.73816637 -2.00394454 -5.61662826 -1.87220942 0 0 Z M-9.375 37.875 C-11.31431316 43.54908828 -13.25318089 49.22332851 -15.19165039 54.89770508 C-15.85005899 56.82482943 -16.50858562 58.75191346 -17.16723633 60.67895508 C-18.11831808 63.46164318 -19.06896396 66.24447987 -20.01953125 69.02734375 C-20.3102803 69.87771713 -20.60102936 70.72809052 -20.90058899 71.60423279 C-21.45658131 73.23246388 -22.01090924 74.86126449 -22.56338501 76.49069214 C-23.11932462 78.12389409 -23.6821533 79.75476264 -24.25082397 81.38357544 C-24.52600861 82.18197845 -24.80119324 82.98038147 -25.0847168 83.80297852 C-25.33287643 84.51462662 -25.58103607 85.22627472 -25.8367157 85.95948792 C-26.51026718 88.02473722 -26.51026718 88.02473722 -26.375 90.875 C-14.825 90.875 -3.275 90.875 8.625 90.875 C7.81675781 88.3896875 7.00851563 85.904375 6.17578125 83.34375 C5.37454096 80.87783667 4.57360931 78.41182328 3.77270508 75.94580078 C3.22517432 74.26047517 2.67733379 72.57525016 2.12915039 70.89013672 C-1.44355928 59.90675612 -4.95743233 48.90768554 -8.375 37.875 C-8.705 37.875 -9.035 37.875 -9.375 37.875 Z " fill="#00618E" transform="translate(199.375,183.125)"/>
</svg>
