<?xml version="1.0" encoding="UTF-8"?>
<svg version="1.1" xmlns="http://www.w3.org/2000/svg" width="128" height="128">
<path d="M0 0 C5.93431181 4.27133768 10.20568179 9.34232669 12.03515625 16.46484375 C13.04681569 25.45263916 12.4657593 33.03709197 7.03515625 40.46484375 C2.2754769 45.78980568 -3.04719702 49.03485813 -10.16796875 49.81640625 C-19.36512824 50.19464441 -26.15160915 48.8299187 -33.0625 42.5625 C-39.50376135 35.67154073 -40.45086305 29.20915183 -40.265625 19.9375 C-39.51985175 11.32720885 -35.75963599 6.67407018 -29.37890625 1.09375 C-21.20769726 -4.41983277 -8.67190296 -4.5547752 0 0 Z M-21.96484375 12.46484375 C-21.96484375 19.72484375 -21.96484375 26.98484375 -21.96484375 34.46484375 C-19.40734375 33.18609375 -16.84984375 31.90734375 -14.21484375 30.58984375 C-10.13151042 28.54817708 -6.04817708 26.50651042 -1.96484375 24.46484375 C-1.96484375 23.80484375 -1.96484375 23.14484375 -1.96484375 22.46484375 C-5.10893069 20.79486679 -8.25539469 19.1294201 -11.40234375 17.46484375 C-12.30017578 16.98789062 -13.19800781 16.5109375 -14.12304688 16.01953125 C-14.97705078 15.56835938 -15.83105469 15.1171875 -16.7109375 14.65234375 C-17.50169678 14.23339844 -18.29245605 13.81445312 -19.10717773 13.3828125 C-20.7689132 12.39100805 -20.7689132 12.39100805 -21.96484375 12.46484375 Z " fill="#00618E" transform="translate(77.96484375,40.53515625)"/>
<path d="M0 0 C4.8404001 2.60960701 8.06650639 6.09014417 9.796875 11.28125 C11.6461702 21.70974976 6.87594475 29.59188748 1.796875 38.28125 C1.43400391 38.90402832 1.07113281 39.52680664 0.69726562 40.16845703 C-3.59074488 47.38348382 -3.59074488 47.38348382 -6.203125 50.28125 C-7.523125 50.28125 -8.843125 50.28125 -10.203125 50.28125 C-12.05181976 48.07562902 -13.55360598 46.01025613 -15.078125 43.59375 C-15.51431152 42.91473633 -15.95049805 42.23572266 -16.39990234 41.53613281 C-28.32203332 22.60020468 -28.32203332 22.60020468 -26.203125 11.28125 C-24.48740495 6.40642635 -21.48341588 3.13477725 -17.203125 0.28125 C-11.84906913 -1.50343529 -5.40672306 -1.76389547 0 0 Z M-13.578125 11.90625 C-15.69019006 14.99311432 -15.81507645 16.6095413 -15.203125 20.28125 C-13.703125 22.78125 -13.703125 22.78125 -11.203125 24.28125 C-7.5314163 24.89320145 -5.91498932 24.76831506 -2.828125 22.65625 C-0.71605994 19.56938568 -0.59117355 17.9529587 -1.203125 14.28125 C-2.703125 11.78125 -2.703125 11.78125 -5.203125 10.28125 C-8.8748337 9.66929855 -10.49126068 9.79418494 -13.578125 11.90625 Z " fill="#00618E" transform="translate(116.203125,74.71875)"/>
<path d="M0 0 C4.8404001 2.60960701 8.06650639 6.09014417 9.796875 11.28125 C11.6461702 21.70974976 6.87594475 29.59188748 1.796875 38.28125 C1.43400391 38.90402832 1.07113281 39.52680664 0.69726562 40.16845703 C-3.59074488 47.38348382 -3.59074488 47.38348382 -6.203125 50.28125 C-7.523125 50.28125 -8.843125 50.28125 -10.203125 50.28125 C-12.05181976 48.07562902 -13.55360598 46.01025613 -15.078125 43.59375 C-15.51431152 42.91473633 -15.95049805 42.23572266 -16.39990234 41.53613281 C-28.32203332 22.60020468 -28.32203332 22.60020468 -26.203125 11.28125 C-24.48740495 6.40642635 -21.48341588 3.13477725 -17.203125 0.28125 C-11.84906913 -1.50343529 -5.40672306 -1.76389547 0 0 Z M-13.578125 11.90625 C-15.69019006 14.99311432 -15.81507645 16.6095413 -15.203125 20.28125 C-13.703125 22.78125 -13.703125 22.78125 -11.203125 24.28125 C-7.5314163 24.89320145 -5.91498932 24.76831506 -2.828125 22.65625 C-0.71605994 19.56938568 -0.59117355 17.9529587 -1.203125 14.28125 C-2.703125 11.78125 -2.703125 11.78125 -5.203125 10.28125 C-8.8748337 9.66929855 -10.49126068 9.79418494 -13.578125 11.90625 Z " fill="#00618E" transform="translate(28.203125,74.71875)"/>
<path d="M0 0 C4.8404001 2.60960701 8.06650639 6.09014417 9.796875 11.28125 C11.6461702 21.70974976 6.87594475 29.59188748 1.796875 38.28125 C1.43400391 38.90402832 1.07113281 39.52680664 0.69726562 40.16845703 C-3.59074488 47.38348382 -3.59074488 47.38348382 -6.203125 50.28125 C-7.523125 50.28125 -8.843125 50.28125 -10.203125 50.28125 C-12.05181976 48.07562902 -13.55360598 46.01025613 -15.078125 43.59375 C-15.51431152 42.91473633 -15.95049805 42.23572266 -16.39990234 41.53613281 C-28.32203332 22.60020468 -28.32203332 22.60020468 -26.203125 11.28125 C-24.48740495 6.40642635 -21.48341588 3.13477725 -17.203125 0.28125 C-11.84906913 -1.50343529 -5.40672306 -1.76389547 0 0 Z M-13.578125 11.90625 C-15.69019006 14.99311432 -15.81507645 16.6095413 -15.203125 20.28125 C-13.703125 22.78125 -13.703125 22.78125 -11.203125 24.28125 C-7.5314163 24.89320145 -5.91498932 24.76831506 -2.828125 22.65625 C-0.71605994 19.56938568 -0.59117355 17.9529587 -1.203125 14.28125 C-2.703125 11.78125 -2.703125 11.78125 -5.203125 10.28125 C-8.8748337 9.66929855 -10.49126068 9.79418494 -13.578125 11.90625 Z " fill="#00618E" transform="translate(116.203125,2.71875)"/>
<path d="M0 0 C4.8404001 2.60960701 8.06650639 6.09014417 9.796875 11.28125 C11.6461702 21.70974976 6.87594475 29.59188748 1.796875 38.28125 C1.43400391 38.90402832 1.07113281 39.52680664 0.69726562 40.16845703 C-3.59074488 47.38348382 -3.59074488 47.38348382 -6.203125 50.28125 C-7.523125 50.28125 -8.843125 50.28125 -10.203125 50.28125 C-12.05181976 48.07562902 -13.55360598 46.01025613 -15.078125 43.59375 C-15.51431152 42.91473633 -15.95049805 42.23572266 -16.39990234 41.53613281 C-28.32203332 22.60020468 -28.32203332 22.60020468 -26.203125 11.28125 C-24.48740495 6.40642635 -21.48341588 3.13477725 -17.203125 0.28125 C-11.84906913 -1.50343529 -5.40672306 -1.76389547 0 0 Z M-13.578125 11.90625 C-15.69019006 14.99311432 -15.81507645 16.6095413 -15.203125 20.28125 C-13.703125 22.78125 -13.703125 22.78125 -11.203125 24.28125 C-7.5314163 24.89320145 -5.91498932 24.76831506 -2.828125 22.65625 C-0.71605994 19.56938568 -0.59117355 17.9529587 -1.203125 14.28125 C-2.703125 11.78125 -2.703125 11.78125 -5.203125 10.28125 C-8.8748337 9.66929855 -10.49126068 9.79418494 -13.578125 11.90625 Z " fill="#00618E" transform="translate(28.203125,2.71875)"/>
<path d="M0 0 C0.33 1.65 0.66 3.3 1 5 C-0.65 5.33 -2.3 5.66 -4 6 C-4.33 4.35 -4.66 2.7 -5 1 C-3 0 -3 0 0 0 Z " fill="#00618E" transform="translate(119,49)"/>
<path d="M0 0 C1.65 0.33 3.3 0.66 5 1 C4.67 2.65 4.34 4.3 4 6 C2.35 5.67 0.7 5.34 -1 5 C-0.67 3.35 -0.34 1.7 0 0 Z " fill="#00618E" transform="translate(9,49)"/>
<path d="M0 0 C1.65 0 3.3 0 5 0 C5 1.65 5 3.3 5 5 C3.0625 5.5625 3.0625 5.5625 1 6 C0 5 0 5 -0.0625 2.4375 C-0.041875 1.633125 -0.02125 0.82875 0 0 Z " fill="#00618E" transform="translate(115,58)"/>
<path d="M0 0 C1.65 0 3.3 0 5 0 C5.33 1.65 5.66 3.3 6 5 C4.35 5 2.7 5 1 5 C0.67 3.35 0.34 1.7 0 0 Z " fill="#00618E" transform="translate(65,115)"/>
<path d="M0 0 C1.32 0 2.64 0 4 0 C4.33 1.65 4.66 3.3 5 5 C3.35 5.33 1.7 5.66 0 6 C-0.38218767 4.34385343 -0.71395102 2.67542976 -1 1 C-0.67 0.67 -0.34 0.34 0 0 Z " fill="#00618E" transform="translate(74,114)"/>
<path d="M0 0 C1.65 0.33 3.3 0.66 5 1 C4.67 2.65 4.34 4.3 4 6 C2.35 5.67 0.7 5.34 -1 5 C-0.67 3.35 -0.34 1.7 0 0 Z " fill="#00618E" transform="translate(50,114)"/>
<path d="M0 0 C0.99 0.33 1.98 0.66 3 1 C3.33 1.99 3.66 2.98 4 4 C2.35 4.66 0.7 5.32 -1 6 C-1.66 4.68 -2.32 3.36 -3 2 C-2.01 1.34 -1.02 0.68 0 0 Z " fill="#00618E" transform="translate(90,108)"/>
<path d="M0 0 C2.475 0.99 2.475 0.99 5 2 C4.34 3.32 3.68 4.64 3 6 C0.525 5.01 0.525 5.01 -2 4 C-1.34 2.68 -0.68 1.36 0 0 Z " fill="#00618E" transform="translate(36,108)"/>
<path d="M0 0 C1.65 0 3.3 0 5 0 C5 1.98 5 3.96 5 6 C3.35 5.67 1.7 5.34 0 5 C0 3.35 0 1.7 0 0 Z " fill="#00618E" transform="translate(115,67)"/>
<path d="M0 0 C1.65 0 3.3 0 5 0 C5 1.65 5 3.3 5 5 C4.01 5.495 4.01 5.495 3 6 C2.01 5.67 1.02 5.34 0 5 C0 3.35 0 1.7 0 0 Z " fill="#00618E" transform="translate(8,58)"/>
<path d="M0 0 C2.475 0.495 2.475 0.495 5 1 C5 2.65 5 4.3 5 6 C3.35 5.67 1.7 5.34 0 5 C0 3.35 0 1.7 0 0 Z " fill="#00618E" transform="translate(73,8)"/>
<path d="M0 0 C1.65 0 3.3 0 5 0 C4.67 1.65 4.34 3.3 4 5 C2.35 5 0.7 5 -1 5 C-0.67 3.35 -0.34 1.7 0 0 Z " fill="#00618E" transform="translate(58,115)"/>
<path d="M0 0 C0.66 0.66 1.32 1.32 2 2 C1.625 4.125 1.625 4.125 1 6 C-0.32 6 -1.64 6 -3 6 C-3.33 4.68 -3.66 3.36 -4 2 C-2.68 1.34 -1.36 0.68 0 0 Z " fill="#00618E" transform="translate(84,111)"/>
<path d="M0 0 C2.475 0.99 2.475 0.99 5 2 C4.67 3.32 4.34 4.64 4 6 C2.35 5.67 0.7 5.34 -1 5 C-0.67 3.35 -0.34 1.7 0 0 Z " fill="#00618E" transform="translate(43,111)"/>
<path d="M0 0 C1.65 0 3.3 0 5 0 C5 1.65 5 3.3 5 5 C3.35 5 1.7 5 0 5 C0 3.35 0 1.7 0 0 Z " fill="#00618E" transform="translate(8,67)"/>
<path d="M0 0 C2.475 0.99 2.475 0.99 5 2 C4.67 3.32 4.34 4.64 4 6 C2.35 5.67 0.7 5.34 -1 5 C-0.67 3.35 -0.34 1.7 0 0 Z " fill="#00618E" transform="translate(81,10)"/>
<path d="M0 0 C0.66 0.99 1.32 1.98 2 3 C1.67 3.99 1.34 4.98 1 6 C-0.32 6 -1.64 6 -3 6 C-3.33 4.68 -3.66 3.36 -4 2 C-2.68 1.34 -1.36 0.68 0 0 Z " fill="#00618E" transform="translate(46,10)"/>
<path d="M0 0 C0 1.65 0 3.3 0 5 C-1.32 5.33 -2.64 5.66 -4 6 C-4.33 4.35 -4.66 2.7 -5 1 C-2 0 -2 0 0 0 Z " fill="#00618E" transform="translate(55,8)"/>
<path d="M0 0 C1.65 0 3.3 0 5 0 C5 1.65 5 3.3 5 5 C3.35 5 1.7 5 0 5 C0 3.35 0 1.7 0 0 Z " fill="#00618E" transform="translate(58,8)"/>
<path d="M0 0 C1.32 0 2.64 0 4 0 C4 1.65 4 3.3 4 5 C2.35 5 0.7 5 -1 5 C-0.67 3.35 -0.34 1.7 0 0 Z " fill="#00618E" transform="translate(66,8)"/>
</svg>
