<?xml version="1.0" encoding="UTF-8"?>
<svg version="1.1" xmlns="http://www.w3.org/2000/svg" width="128" height="128">
<path d="M0 0 C1.24703957 -0.0131424 1.24703957 -0.0131424 2.51927185 -0.02655029 C5.26606522 -0.04854768 8.01124704 -0.03398964 10.75805664 -0.01708984 C12.66850595 -0.02045822 14.57895317 -0.02531101 16.48939514 -0.03158569 C20.49346315 -0.03895774 24.4969734 -0.02824206 28.50097656 -0.00488281 C33.63053073 0.0235859 38.75877584 0.00721523 43.88828182 -0.02274513 C47.833764 -0.04082563 51.7789366 -0.0350563 55.72442818 -0.02210617 C57.61544513 -0.01877324 59.50649028 -0.02285529 61.39747429 -0.03450394 C64.04308189 -0.04722305 66.68658051 -0.02782144 69.33203125 0 C70.50188568 -0.01518173 70.50188568 -0.01518173 71.69537354 -0.03067017 C75.69268037 0.04709683 77.52460645 0.48327014 80.69313049 2.99990845 C84.27980802 7.65943325 83.88467961 12.08563991 83.8918457 17.72070312 C83.89929306 19.11382721 83.89929306 19.11382721 83.90689087 20.53509521 C83.92151137 23.6114577 83.92831402 26.68776862 83.93383789 29.76416016 C83.93958906 31.90023805 83.9453468 34.03631594 83.95111084 36.1723938 C83.96162025 40.65301759 83.96746344 45.13362343 83.97094727 49.61425781 C83.97643443 55.35668063 84.00046759 61.09886663 84.02891922 66.84121513 C84.04753806 71.25412694 84.05275078 75.66698158 84.05428314 80.07992935 C84.05731147 82.19703594 84.06534603 84.31414148 84.07846832 86.43120956 C84.09551421 89.39247444 84.09365213 92.35315916 84.0871582 95.31445312 C84.09637299 96.18943451 84.10558777 97.06441589 84.11508179 97.96591187 C84.07539197 103.74067207 83.07034347 107.06492252 79.10961914 111.43603516 C75.38889177 113.33000147 71.7806505 113.08076843 67.66821289 113.02197266 C66.85288086 113.03357422 66.03754883 113.04517578 65.19750977 113.05712891 C64.41311523 113.05326172 63.6287207 113.04939453 62.82055664 113.04541016 C62.10762451 113.04202637 61.39469238 113.03864258 60.66015625 113.03515625 C58.16982869 112.53412869 57.27323853 111.63178997 55.73071289 109.64697266 C55.35571289 107.14697266 55.35571289 107.14697266 55.73071289 104.64697266 C56.72071289 103.65697266 57.71071289 102.66697266 58.73071289 101.64697266 C63.02071289 101.64697266 67.31071289 101.64697266 71.73071289 101.64697266 C71.73071289 71.94697266 71.73071289 42.24697266 71.73071289 11.64697266 C57.54071289 11.64697266 43.35071289 11.64697266 28.73071289 11.64697266 C28.73071289 12.30697266 28.73071289 12.96697266 28.73071289 13.64697266 C29.35977539 13.81712891 29.98883789 13.98728516 30.63696289 14.16259766 C45.24325341 18.29811365 45.24325341 18.29811365 49.73071289 23.64697266 C50.11382294 25.56388664 50.11382294 25.56388664 50.12512207 27.77047729 C50.13647186 28.60879089 50.14782166 29.44710449 50.15951538 30.31082153 C50.15511948 31.68547073 50.15511948 31.68547073 50.15063477 33.08789062 C50.15910431 34.0556543 50.16757385 35.02341797 50.17630005 36.02050781 C50.19974204 39.22685814 50.2006904 42.43273054 50.19946289 45.63916016 C50.20656069 47.864921 50.21425912 50.09067999 50.22253418 52.31643677 C50.23599598 56.98542361 50.23754035 61.65424134 50.23168945 66.32324219 C50.22579532 72.30802086 50.25636588 78.29198776 50.29680634 84.27660942 C50.32265176 88.87485124 50.32556352 93.47289688 50.32191467 98.07120132 C50.32360923 100.27763024 50.33328382 102.4840679 50.35105896 104.69042587 C50.37318298 107.77659181 50.36357899 110.86110556 50.34594727 113.94726562 C50.35921051 114.85964996 50.37247375 115.7720343 50.38613892 116.71206665 C50.32744922 121.13103691 50.15613209 123.07271092 47.45440674 126.71969604 C43.36764738 129.61147323 40.55679362 129.4283473 35.73071289 128.64697266 C32.3156053 127.71182323 29.10265711 126.43741286 25.84008789 125.06884766 C24.4786264 124.51707855 24.4786264 124.51707855 23.08966064 123.9541626 C21.18408416 123.17805969 19.28157732 122.39438077 17.38208008 121.60351562 C14.48211363 120.39755516 11.57249742 119.21782622 8.66040039 118.04150391 C6.80300637 117.28130602 4.94621359 116.51963711 3.09008789 115.75634766 C2.22542908 115.40513855 1.36077026 115.05392944 0.46990967 114.69207764 C-3.95877501 112.83615678 -7.78080891 111.052761 -11.26928711 107.64697266 C-12.1729509 104.93598128 -12.39994041 103.34744731 -12.41645813 100.56143188 C-12.42361343 99.73153244 -12.43076874 98.901633 -12.43814087 98.04658508 C-12.44082977 97.13950302 -12.44351868 96.23242096 -12.44628906 95.29785156 C-12.45286026 94.33984146 -12.45943146 93.38183136 -12.46620178 92.39479065 C-12.48593078 89.22103805 -12.49759521 86.0473327 -12.50756836 82.87353516 C-12.51164389 81.79030346 -12.51571941 80.70707176 -12.51991844 79.59101486 C-12.54077535 73.85999492 -12.55507994 68.12899891 -12.56445312 62.39794922 C-12.57552961 56.47385867 -12.60994513 50.55014248 -12.64962482 44.62618446 C-12.67574292 40.0743031 -12.68414059 35.52251169 -12.6877346 30.97056198 C-12.69261132 28.78645671 -12.70425599 26.60235574 -12.7227726 24.41832352 C-12.74706612 21.36353914 -12.74621698 18.30973379 -12.73925781 15.25488281 C-12.75206787 14.35184921 -12.76487793 13.44881561 -12.77807617 12.51841736 C-12.74564307 8.61579051 -12.50662226 6.12713065 -10.75674438 2.58691406 C-7.29421616 -0.11347478 -4.2162874 -0.05457503 0 0 Z " fill="#00618E" transform="translate(28.269287109375,-0.64697265625)"/>
</svg>
