<?xml version="1.0" encoding="UTF-8"?>
<svg version="1.1" xmlns="http://www.w3.org/2000/svg" width="500" height="500">
<path d="M0 0 C0.70830963 -0.00067474 1.41661926 -0.00134949 2.14639282 -0.00204468 C14.23769486 0.01617255 25.88149257 0.87009837 37.75 3.25 C38.57902832 3.4056543 39.40805664 3.56130859 40.26220703 3.72167969 C68.29987147 9.09230476 95.31282785 21.60808934 117.75 39.25 C118.28109375 39.66685059 118.8121875 40.08370117 119.359375 40.51318359 C160.58495035 73.29602127 185.37934759 119.47525614 192.04003906 171.51611328 C197.15833561 216.636007 185.54065708 260.01501541 161.75 298.25 C160.99203125 299.12269531 160.2340625 299.99539063 159.453125 300.89453125 C157.53804456 303.01701993 157.53804456 303.01701993 157.86806965 305.10086632 C159.08350316 308.06269783 160.88337414 309.73898376 163.15776062 311.99160767 C163.61990662 312.45349468 164.08205262 312.91538169 164.55820304 313.39126527 C166.10951599 314.93815125 167.67127681 316.47404105 169.2331543 318.01025391 C170.34737661 319.11708159 171.46091087 320.2246023 172.57380676 321.33276367 C174.97323659 323.71931344 177.37719849 326.1011695 179.78467369 328.47960281 C183.59659276 332.24617234 187.39650274 336.02470166 191.1945343 339.80526733 C200.63493152 349.19858609 210.09025753 358.57684002 219.55023193 367.95043945 C226.89325746 375.22665124 234.23170815 382.5073486 241.55638248 389.8020395 C245.32535197 393.55457034 249.10348333 397.29754059 252.88894784 401.03342748 C255.25232901 403.36999392 257.6071948 405.71500371 259.95988274 408.06233215 C261.04552189 409.14212219 262.1345764 410.21849198 263.22742844 411.29098129 C272.05695493 419.96179208 280.65409188 429.13854407 280.77734375 442.1328125 C280.32938756 451.29868523 277.65663933 457.84196983 271.5234375 464.64453125 C264.5361733 470.97000611 256.84418945 472.64693131 247.65625 472.5234375 C233.76343953 471.21631824 224.84123204 459.48018756 215.62402344 450.15820312 C214.52615945 449.05185559 213.42802769 447.94577371 212.32965088 446.8399353 C209.97999701 444.47366586 207.63175163 442.10601075 205.28447723 439.73738098 C201.57391671 435.99403779 197.85725798 432.25678985 194.13922119 428.52087402 C192.86356724 427.23896037 191.58791341 425.95704662 190.31225967 424.67513275 C189.67393471 424.03369166 189.03560975 423.39225058 188.37794161 422.73137188 C179.73207469 414.04254633 171.09088523 405.34914498 162.46386719 396.64160156 C156.62940761 390.75277778 150.78619674 384.87279559 144.93268228 379.00291014 C141.83847061 375.89930885 138.74904782 372.7912456 135.67034149 369.67225647 C132.78184914 366.74606804 129.88207349 363.8315699 126.97304535 360.92580032 C125.9060195 359.85579224 124.8433082 358.78146227 123.78520203 357.7026329 C122.34440911 356.23487515 120.8891664 354.78318167 119.42913818 353.33459473 C118.61728939 352.51683815 117.8054406 351.69908157 116.96899033 350.85654449 C114.90939396 348.9975488 114.90939396 348.9975488 112.56837845 349.43442535 C110.64243247 350.29824592 108.92764726 351.2467405 107.16015625 352.40234375 C106.46946045 352.84416992 105.77876465 353.28599609 105.06713867 353.74121094 C104.32310791 354.21848633 103.57907715 354.69576172 102.8125 355.1875 C61.42770872 380.98163782 11.77382438 390.57414493 -36.25 381.25 C-37.37390137 381.0331958 -37.37390137 381.0331958 -38.52050781 380.81201172 C-67.1385816 375.0921975 -94.48240925 362.47009577 -117.25 344.25 C-118.01860352 343.63584229 -118.01860352 343.63584229 -118.80273438 343.00927734 C-137.11898357 328.25827591 -152.10629301 311.37601905 -164.25 291.25 C-164.62366699 290.63962891 -164.99733398 290.02925781 -165.38232422 289.40039062 C-178.88121766 267.18046369 -187.01626054 242.00410682 -190.25 216.25 C-190.3435376 215.51450928 -190.4370752 214.77901855 -190.53344727 214.02124023 C-196.35877828 162.89360506 -181.32841845 112.09295235 -149.6015625 71.85546875 C-117.9278597 32.73474615 -73.76355506 8.73291215 -24.25 1.25 C-23.54891113 1.14397461 -22.84782227 1.03794922 -22.12548828 0.92871094 C-14.7854259 -0.03160672 -7.39137058 0.00634988 0 0 Z M-73.25 82.25 C-74.15492188 82.8584375 -75.05984375 83.466875 -75.9921875 84.09375 C-90.28989758 94.16801726 -103.14567535 107.28569836 -112.25 122.25 C-112.63591309 122.88309082 -113.02182617 123.51618164 -113.41943359 124.16845703 C-120.19987728 135.55480112 -124.64372428 147.52893318 -128.25 160.25 C-128.61222656 161.51585937 -128.97445312 162.78171875 -129.34765625 164.0859375 C-136.77231857 195.9256522 -130.10124064 233.03702441 -112.95776367 260.83886719 C-101.94917321 278.00766869 -87.78738958 293.64121568 -70.25 304.25 C-69.63688965 304.62705078 -69.0237793 305.00410156 -68.39208984 305.39257812 C-40.00162933 322.71653845 -4.81521685 329.574756 27.94921875 322.22265625 C46.62667796 317.44291592 63.11107447 310.64259475 78.75 299.25 C79.61882812 298.62609375 80.48765625 298.0021875 81.3828125 297.359375 C93.77680086 287.95139704 104.65018525 276.52813144 112.75 263.25 C113.12318359 262.6513916 113.49636719 262.0527832 113.88085938 261.43603516 C131.42462225 233.07067985 137.84647533 198.43273961 130.8515625 165.60546875 C124.91844093 141.02782463 114.33698573 119.54272352 96.75 101.25 C96.07928467 100.53263672 96.07928467 100.53263672 95.39501953 99.80078125 C88.21925842 92.13481194 80.73579238 85.78276927 71.75 80.25 C71.13108887 79.86714844 70.51217773 79.48429687 69.87451172 79.08984375 C26.67666478 52.74730766 -31.39308177 52.7627382 -73.25 82.25 Z " fill="#ffffff" transform="translate(207.25,15.75)"/>
</svg>
